<?xml version="1.0" standalone="no"?><!DOCTYPE svg PUBLIC "-//W3C//DTD SVG 1.1//EN" "http://www.w3.org/Graphics/SVG/1.1/DTD/svg11.dtd"><svg t="1598327702613" class="icon" viewBox="0 0 1024 1024" version="1.1" xmlns="http://www.w3.org/2000/svg" p-id="1164" xmlns:xlink="http://www.w3.org/1999/xlink" width="200" height="200"><defs><style type="text/css"></style></defs><path d="M512 938.666667c-235.733333 0-426.666667-190.933333-426.666667-426.666667s190.933333-426.666667 426.666667-426.666667 426.666667 190.933333 426.666667 426.666667-190.933333 426.666667-426.666667 426.666667z m173.866667-376.533334c-3.733333-12.8-9.066667-27.2-14.4-41.066666l-19.733334-49.066667v-15.466667c0-83.733333-39.466667-168.533333-137.066666-168.533333S377.6 372.266667 377.6 456.533333v15.466667l-19.733333 49.066667c-5.333333 13.866667-10.666667 28.8-14.4 41.066666-18.666667 59.733333-12.8 84.8-8 85.333334 9.6 1.066667 38.4-44.8 38.4-44.8 0 26.666667 13.866667 61.866667 43.733333 86.933333-11.2 3.2-25.066667 8.533333-33.6 15.466667-8 5.866667-6.933333 11.733333-5.333333 14.4 6.4 10.666667 107.2 6.933333 136.533333 3.2 29.333333 3.2 130.133333 6.933333 136.533333-3.2 1.6-2.666667 2.666667-8.533333-5.333333-14.4-9.066667-6.4-22.4-11.733333-33.6-15.466667 29.866667-25.066667 43.733333-60.266667 43.733333-86.933333 0 0 28.266667 46.4 38.4 44.8 3.733333-1.066667 9.6-25.6-9.066666-85.333334z" fill="#727272" p-id="1165"></path></svg>